<svg width="4" height="16" viewBox="0 0 4 16" fill="none" xmlns="http://www.w3.org/2000/svg">
<path id="ic_more_vert" d="M2 4C2.39556 4 2.78224 3.8827 3.11114 3.66294C3.44004 3.44318 3.69638 3.13082 3.84776 2.76537C3.99913 2.39992 4.03874 1.99778 3.96157 1.60982C3.8844 1.22186 3.69392 0.865492 3.41421 0.585787C3.13451 0.306082 2.77814 0.115601 2.39018 0.0384303C2.00222 -0.0387401 1.60009 0.000866562 1.23463 0.152242C0.869182 0.303617 0.556825 0.559962 0.337062 0.888861C0.117299 1.21776 1.07779e-06 1.60444 1.07779e-06 2C0.0015838 2.52995 0.212806 3.03774 0.587536 3.41247C0.962266 3.7872 1.47005 3.99842 2 4ZM2 6C1.60444 6 1.21776 6.1173 0.88886 6.33706C0.559962 6.55682 0.303617 6.86918 0.152242 7.23463C0.000866562 7.60009 -0.0387401 8.00222 0.0384303 8.39018C0.115601 8.77814 0.306083 9.13451 0.585788 9.41421C0.865492 9.69392 1.22186 9.8844 1.60982 9.96157C1.99778 10.0387 2.39991 9.99913 2.76537 9.84776C3.13082 9.69638 3.44318 9.44004 3.66294 9.11114C3.8827 8.78224 4 8.39556 4 8C3.99842 7.47005 3.78719 6.96227 3.41246 6.58753C3.03773 6.2128 2.52995 6.00158 2 6ZM2 12C1.60444 12 1.21776 12.1173 0.88886 12.3371C0.559962 12.5568 0.303617 12.8692 0.152242 13.2346C0.000866562 13.6001 -0.0387401 14.0022 0.0384303 14.3902C0.115601 14.7781 0.306083 15.1345 0.585788 15.4142C0.865492 15.6939 1.22186 15.8844 1.60982 15.9616C1.99778 16.0387 2.39991 15.9991 2.76537 15.8478C3.13082 15.6964 3.44318 15.44 3.66294 15.1111C3.8827 14.7822 4 14.3956 4 14C3.99842 13.4701 3.78719 12.9623 3.41246 12.5875C3.03773 12.2128 2.52995 12.0016 2 12Z" />
</svg>
